<svg xmlns="http://www.w3.org/2000/svg" viewBox="0 0 1047.19 195.1"><defs><style>.cls-1{fill:#fff;}</style></defs><g id="Capa_2" data-name="Capa 2"><g id="Capa_1-2" data-name="Capa 1"><rect class="cls-1" x="794.2" y="135.2" width="18.69" height="18.69"/><path class="cls-1" d="M873.77,83.22a25.6,25.6,0,0,0-7.32-7.7,21.48,21.48,0,0,0-12.29-3.75,25.67,25.67,0,0,0-14.43,3.94,24.61,24.61,0,0,0-9.16,11.49,47.08,47.08,0,0,0-3.14,18.11v15.16q0,10.57,3.18,18a24.7,24.7,0,0,0,9.27,11.41,26.39,26.39,0,0,0,14.66,3.94,21.07,21.07,0,0,0,12.68-3.79,21.33,21.33,0,0,0,6.55-7.63v10.12h18.3V41.21h-18.3Zm-1.61,47.13a11.44,11.44,0,0,1-4.67,4.94,15,15,0,0,1-7.43,1.72q-6.82,0-10.57-4.33t-3.75-12.21v-15q0-8,3.75-12.4t10.57-4.45a15.28,15.28,0,0,1,7.43,1.69,11.18,11.18,0,0,1,4.67,4.9,17.34,17.34,0,0,1,1.61,7.81v19.6A17.15,17.15,0,0,1,872.16,130.35Z"/><path class="cls-1" d="M955.41,77A29.51,29.51,0,0,0,938,71.92q-10.8,0-18.49,4.36A28.34,28.34,0,0,0,907.78,89q-4,8.34-4,20.14v9q0,11.33,4.21,19.33a28.12,28.12,0,0,0,12.18,12.14q8,4.14,19.22,4.14a39.67,39.67,0,0,0,15.2-3.11,44.4,44.4,0,0,0,13.59-8.76l-11.94-11.18a27,27,0,0,1-7.93,4.78,24.3,24.3,0,0,1-8.92,1.73q-8.88,0-13.78-4.87c-2.93-2.9-4.53-6.93-4.84-12.06h49.48V115q0-13.62-3.79-23.28T955.41,77Zm-34.68,29.83c.22-5.62,1.7-10,4.47-13.21q4.51-5.17,12.79-5.17a13,13,0,0,1,10.49,4.6q3.91,4.59,4.67,12.94l.08.84Z"/><polygon class="cls-1" points="1028.58 74.4 1010.66 127.7 992.74 74.4 974.13 74.4 1004 153.89 1017.32 153.89 1047.19 74.4 1028.58 74.4"/><path class="cls-1" d="M496.67,122.26q0,6.83-3.68,10.45t-10.49,3.64q-6.81,0-10.57-3.87t-3.75-10.91V73.25h-18.3V122q0,15.24,7.08,23.58t20,8.35a20.52,20.52,0,0,0,13.09-4.21,23.51,23.51,0,0,0,6.59-8v11h18.22V73.25H496.67Z"/><rect class="cls-1" x="532.57" y="73.25" width="18.23" height="79.49"/><rect class="cls-1" x="532.57" y="42.73" width="18.23" height="18.3"/><path class="cls-1" d="M620.15,105.38a82,82,0,0,0-14.63-2.52,2.55,2.55,0,0,0-.61-.08h-.54c-.41,0-.8-.09-1.18-.11l-1.19-.12q-5.89-.54-9-1a12.87,12.87,0,0,1-5.17-1.88,4.5,4.5,0,0,1-2.07-4,6.61,6.61,0,0,1,3.76-6.13q3.75-2.07,11-2.07a37.23,37.23,0,0,1,11.06,1.77,50.87,50.87,0,0,1,11.3,5.13L633.78,81a54.09,54.09,0,0,0-10.07-5.63A58.55,58.55,0,0,0,612.57,72a59.8,59.8,0,0,0-12-1.19q-10.26,0-17.31,2.87a22.29,22.29,0,0,0-10.68,8.5A24.92,24.92,0,0,0,569,96c0,5.83,1.21,10.29,3.64,13.41a17.79,17.79,0,0,0,9,6.31,75.68,75.68,0,0,0,13.71,2.57,4.26,4.26,0,0,1,.61,0c.2,0,.41,0,.61,0,.66.1,1.35.18,2.07.23l2.07.15q5.89.54,9.15,1.15a12.52,12.52,0,0,1,5.4,2.26,5.86,5.86,0,0,1,2.14,4.94q0,4.29-4.33,6.54t-12.67,2.26a37,37,0,0,1-12.29-2.22,50.12,50.12,0,0,1-12.37-6.51l-11.1,13.79a45.83,45.83,0,0,0,10.14,6.35,56,56,0,0,0,12.07,3.95,66.46,66.46,0,0,0,13.55,1.34q11,0,18.49-2.95a23.42,23.42,0,0,0,11.38-8.73,25.21,25.21,0,0,0,3.83-14.21q0-9.57-4.06-14.58A19.53,19.53,0,0,0,620.15,105.38Z"/><path class="cls-1" d="M781.57,87.84a26.83,26.83,0,0,0-11.49-11.72q-7.53-4-18.11-4t-18.11,4a26.75,26.75,0,0,0-11.48,11.72q-3.95,7.69-4,18.49v12.94q0,11,4,18.73a26.9,26.9,0,0,0,11.48,11.83q7.54,4.06,18.11,4.06t18.11-4.06a27.06,27.06,0,0,0,11.49-11.75q3.95-7.71,3.95-18.58V106.33Q785.52,95.53,781.57,87.84ZM767.21,119.5c0,5.37-1.33,9.51-4,12.45s-6.41,4.4-11.26,4.4-8.66-1.47-11.29-4.4-3.95-7.08-3.95-12.45V106.33q0-8,4-12.33T752,89.64q7.28,0,11.26,4.36t4,12.33Z"/><path class="cls-1" d="M417.06,153.89H379.77V90.31a48,48,0,0,1,48-47.95h9V62h-9a28.33,28.33,0,0,0-28.34,28.33v44h37.3A19.62,19.62,0,0,1,417.06,153.89Z"/><path class="cls-1" d="M657.86,153.89h-9V134.27h9a28.34,28.34,0,0,0,28.34-28.34V62H648.9a19.61,19.61,0,0,1,19.62-19.62h37.29v63.58A48,48,0,0,1,657.86,153.89Z"/><path class="cls-1" d="M173.83.2h32.79L143.05,194.9H110.26Z"/><path class="cls-1" d="M65.24,195.1H0V83.89A83.89,83.89,0,0,1,83.89,0H99.62V34.32H83.89A49.57,49.57,0,0,0,34.32,83.89v76.89H99.56A34.32,34.32,0,0,1,65.24,195.1Z"/><path class="cls-1" d="M235.49,195.1H219.76V160.78h15.73a49.57,49.57,0,0,0,49.57-49.57V34.32H219.82A34.32,34.32,0,0,1,254.14,0h65.24V111.21A83.89,83.89,0,0,1,235.49,195.1Z"/></g></g></svg>