<svg xmlns="http://www.w3.org/2000/svg" viewBox="0 0 667.42 112.68"><defs><style>.cls-1{fill:#fff;}</style></defs><g id="Capa_2" data-name="Capa 2"><g id="Capa_1-2" data-name="Capa 1"><rect class="cls-1" x="414.43" y="93.99" width="18.69" height="18.69"/><path class="cls-1" d="M494,42a25.45,25.45,0,0,0-7.31-7.7,21.51,21.51,0,0,0-12.29-3.75A25.73,25.73,0,0,0,460,34.5,24.53,24.53,0,0,0,450.81,46a47,47,0,0,0-3.14,18.11V79.26q0,10.56,3.18,18a24.58,24.58,0,0,0,9.26,11.41,26.4,26.4,0,0,0,14.67,4A20.69,20.69,0,0,0,494,101.23v10.12h18.3V0H494Zm-1.61,47.13a11.38,11.38,0,0,1-4.67,4.94,14.93,14.93,0,0,1-7.43,1.72q-6.81,0-10.57-4.33T466,79.26v-15q0-8,3.75-12.41t10.57-4.44a15.14,15.14,0,0,1,7.43,1.69,11.07,11.07,0,0,1,4.67,4.9A17.34,17.34,0,0,1,494,61.8V81.4A17.18,17.18,0,0,1,492.39,89.14Z"/><path class="cls-1" d="M575.65,35.8a29.54,29.54,0,0,0-17.42-5.09q-10.8,0-18.5,4.36A28.32,28.32,0,0,0,528,47.79q-4,8.34-4,20.14v9q0,11.33,4.22,19.33a28,28,0,0,0,12.17,12.14q8,4.14,19.22,4.14a39.68,39.68,0,0,0,15.21-3.11,44.64,44.64,0,0,0,13.59-8.76L576.45,89.44a26.88,26.88,0,0,1-7.92,4.79A24.3,24.3,0,0,1,559.6,96q-8.88,0-13.78-4.86c-2.93-2.9-4.53-6.93-4.84-12.06h49.49V73.82q0-13.62-3.79-23.28T575.65,35.8ZM541,65.63c.22-5.62,1.7-10,4.48-13.21q4.51-5.18,12.79-5.17a13.08,13.08,0,0,1,10.49,4.59q3.9,4.6,4.67,13l.07.84Z"/><polygon class="cls-1" points="648.81 33.19 630.89 86.49 612.98 33.19 594.37 33.19 624.23 112.68 637.56 112.68 667.42 33.19 648.81 33.19"/><path class="cls-1" d="M116.9,81.05q0,6.81-3.67,10.45t-10.5,3.64q-6.81,0-10.56-3.87T88.41,80.36V32H70.11v48.7q0,15.24,7.09,23.59t20,8.35a20.61,20.61,0,0,0,13.1-4.21,23.63,23.63,0,0,0,6.58-8v11h18.23V32H116.9Z"/><rect class="cls-1" x="152.8" y="32.04" width="18.23" height="79.49"/><rect class="cls-1" x="152.8" y="1.51" width="18.23" height="18.3"/><path class="cls-1" d="M240.38,64.17a81.88,81.88,0,0,0-14.62-2.52,2.64,2.64,0,0,0-.62-.08h-.53l-1.19-.12c-.38,0-.78-.06-1.19-.11q-5.89-.54-9-1a13,13,0,0,1-5.16-1.88,4.5,4.5,0,0,1-2.07-4,6.62,6.62,0,0,1,3.75-6.13q3.75-2.07,10.95-2.07A37.65,37.65,0,0,1,231.77,48a51.31,51.31,0,0,1,11.29,5.14L254,39.82a53.21,53.21,0,0,0-10.07-5.63,58.55,58.55,0,0,0-11.14-3.44,59.72,59.72,0,0,0-12-1.19q-10.26,0-17.3,2.87a22.36,22.36,0,0,0-10.69,8.5,25,25,0,0,0-3.63,13.82q0,8.73,3.63,13.41a17.87,17.87,0,0,0,9,6.31A76,76,0,0,0,215.57,77a4.17,4.17,0,0,1,.61,0c.21,0,.41,0,.62,0,.66.1,1.35.17,2.06.23l2.07.15q5.9.54,9.15,1.15a12.52,12.52,0,0,1,5.4,2.26,5.83,5.83,0,0,1,2.15,4.94c0,2.85-1.45,5-4.33,6.54s-7.11,2.26-12.68,2.26a37,37,0,0,1-12.29-2.22A50.06,50.06,0,0,1,196,85.92L184.86,99.71A45.9,45.9,0,0,0,195,106.06a55.72,55.72,0,0,0,12.06,4,66.6,66.6,0,0,0,13.55,1.34q10.95,0,18.5-2.95a23.34,23.34,0,0,0,11.37-8.73,25.21,25.21,0,0,0,3.83-14.21q0-9.57-4.06-14.59A19.57,19.57,0,0,0,240.38,64.17Z"/><path class="cls-1" d="M401.81,46.63a26.83,26.83,0,0,0-11.49-11.72q-7.54-4-18.11-4t-18.11,4a26.83,26.83,0,0,0-11.49,11.72q-3.94,7.69-3.94,18.49V78.06q0,11,3.94,18.73a27,27,0,0,0,11.49,11.83q7.54,4.06,18.11,4.06t18.11-4.06a27.08,27.08,0,0,0,11.49-11.76q3.94-7.69,3.94-18.57V65.12Q405.75,54.32,401.81,46.63ZM387.45,78.29q0,8-4,12.45t-11.26,4.4q-7.35,0-11.3-4.4T357,78.29V65.12q0-8,4-12.33t11.26-4.36q7.28,0,11.26,4.36t4,12.33Z"/><path class="cls-1" d="M37.29,112.68H0V49.1A48,48,0,0,1,48,1.15h9V20.77H48A28.33,28.33,0,0,0,19.62,49.1v44H56.91A19.62,19.62,0,0,1,37.29,112.68Z"/><path class="cls-1" d="M278.09,112.68h-9V93.06h9a28.34,28.34,0,0,0,28.34-28.34V20.77h-37.3A19.62,19.62,0,0,1,288.75,1.15h37.3V64.72A48,48,0,0,1,278.09,112.68Z"/></g></g></svg>